# xmcd CD database file
#
# Track frame offsets:
#	150
#	31069
#	70885
#	90166
#	162450
#	191066
#	209777
#	277134
#	293749
#
# Disc length: 4415 seconds
#
# Revision: 1
# Processed by: cddbd v1.5.2PL0 Copyright (c) Steve Scherf et al.
# Submitted via: CDex 1.70beta2
#
DISCID=86113d09
DTITLE=The Nels Cline Singers - Draw Breath
DYEAR=2007
DGENRE=Avant-Garde Jazz
TTITLE0=Caved-In Heart Blues
TTITLE1=Attempted
TTITLE2=Confection
TTITLE3=An Evening at Pops'
TTITLE4=The Angel of Angels
TTITLE5=Recognize I
TTITLE6=Mixed Message
TTITLE7=Recognize II
TTITLE8=Squirrel of God
EXTD=YEAR: 2007
EXTT0=
EXTT1=
EXTT2=
EXTT3=
EXTT4=
EXTT5=
EXTT6=
EXTT7=
EXTT8=
PLAYORDER=
